<svg xmlns="http://www.w3.org/2000/svg" viewBox="0 0 64 64">
  <rect x="7" y="7" width="50" height="50" rx="16" fill="#0f1117" stroke="#feda6a" stroke-width="2"/>
  <path d="M19 37.6c2.4 2.6 6.1 4.4 10.1 4.4 3.1 0 5.1-1.1 5.1-2.8 0-1.8-1.3-2.4-5.7-3.4-6.5-1.4-8.9-4-8.9-8.6 0-5.1 4.2-8.5 10.2-8.5 4.3 0 7.7 1.2 10.4 3.8l-3.5 4.3c-2.2-1.8-4.4-2.7-6.9-2.7-2.5 0-4 .9-4 2.6 0 1.8 1.5 2.4 6.1 3.5 5.6 1.3 8.4 3.8 8.4 8.2 0 5.5-4.3 9-11.1 9-5 0-9.2-1.8-12.1-4.9l3.9-4.9Z" fill="#f5f4f0"/>
  <path d="M26 45V19h8.2c10.5 0 16 4.7 16 13s-5.5 13-16 13H26Zm6.2-5.1h1.6c6.7 0 10.1-2.6 10.1-7.9s-3.4-7.9-10.1-7.9h-1.6v15.8Z" fill="#feda6a"/>
</svg>
